<svg width="25" height="34" viewBox="0 0 25 34" fill="none" xmlns="http://www.w3.org/2000/svg">
<path d="M20.7487 17.4937C20.7357 15.1043 21.8164 13.3009 24.0039 11.9728C22.7799 10.2215 20.931 9.25798 18.4896 9.06917C16.1784 8.88688 13.6523 10.4168 12.7279 10.4168C11.7513 10.4168 9.51172 9.13428 7.75391 9.13428C4.12109 9.19287 0.260417 12.0314 0.260417 17.8062C0.260417 19.5119 0.572917 21.274 1.19792 23.0926C2.03125 25.4819 5.03906 31.3413 8.17708 31.2437C9.81771 31.2046 10.9766 30.0783 13.112 30.0783C15.1823 30.0783 16.2565 31.2437 18.0859 31.2437C21.25 31.1981 23.9714 25.8726 24.7656 23.4767C20.5208 21.478 20.7487 17.6174 20.7487 17.4937ZM17.0638 6.80355C18.8411 4.69417 18.6784 2.7736 18.6263 2.0835C17.0573 2.17464 15.2409 3.1512 14.2057 4.35563C13.0664 5.64469 12.3958 7.23975 12.5391 9.03662C14.2383 9.16683 15.7878 8.29443 17.0638 6.80355Z" fill="#BAE7EB"/>
</svg>
