<svg width="25" height="34" viewBox="0 0 25 34" fill="none" xmlns="http://www.w3.org/2000/svg">
<path d="M20.7487 17.4935C20.7357 15.1042 21.8164 13.3008 24.0039 11.9727C22.7799 10.2214 20.931 9.25785 18.4896 9.06905C16.1784 8.88676 13.6523 10.4167 12.7279 10.4167C11.7513 10.4167 9.51171 9.13416 7.7539 9.13416C4.12108 9.19275 0.260406 12.0313 0.260406 17.806C0.260406 19.5118 0.572906 21.2739 1.19791 23.0925C2.03124 25.4818 5.03905 31.3412 8.17707 31.2435C9.8177 31.2045 10.9766 30.0782 13.112 30.0782C15.1823 30.0782 16.2565 31.2435 18.0859 31.2435C21.25 31.198 23.9713 25.8724 24.7656 23.4766C20.5208 21.4779 20.7487 17.6172 20.7487 17.4935ZM17.0638 6.80343C18.8411 4.69405 18.6784 2.77348 18.6263 2.08337C17.0573 2.17452 15.2409 3.15108 14.2057 4.35551C13.0664 5.64457 12.3958 7.23962 12.5391 9.0365C14.2383 9.16671 15.7878 8.29431 17.0638 6.80343Z" fill="#025B64"/>
</svg>
