<svg width="29" height="25" viewBox="0 0 29 25" fill="none" xmlns="http://www.w3.org/2000/svg">
<g clip-path="url(#clip0_63_367)">
<path d="M22.0459 11.9482H28.125V8.39844H22.0459V11.9482ZM22.0459 3.45703V7.00684H28.125V3.45703H22.0459ZM22.0459 16.8896H28.125V13.3398H22.0459V16.8896ZM0 21.8311H6.0791V18.2812H0V21.8311ZM7.34863 21.8311H13.4277V18.2812H7.34863V21.8311ZM14.6973 21.8311H20.7764V18.2812H14.6973V21.8311ZM22.0459 21.8311H28.125V18.2812H22.0459V21.8311ZM14.6973 16.8896H20.7764V13.3398H14.6973V16.8896ZM7.34863 16.8896H13.4277V13.3398H7.34863V16.8896ZM7.34863 11.9482H13.4277V8.39844H7.34863V11.9482Z" fill="#BAE7EB"/>
</g>
<defs>
<clipPath id="clip0_63_367">
<rect width="28.125" height="25" fill="white"/>
</clipPath>
</defs>
</svg>
