<svg width="25" height="29" viewBox="0 0 25 29" fill="none" xmlns="http://www.w3.org/2000/svg">
<path d="M10.8482 11.8135C10.5232 12.0308 10.2442 12.31 10.0271 12.6351C9.80995 12.9602 9.65899 13.3249 9.58282 13.7084C9.42898 14.4828 9.58908 15.2866 10.0279 15.943C10.4667 16.5994 11.1483 17.0546 11.9227 17.2084C12.6972 17.3622 13.501 17.2021 14.1574 16.7633C14.8137 16.3245 15.2689 15.6429 15.4228 14.8685C15.5766 14.0941 15.4165 13.2902 14.9777 12.6339C14.5389 11.9775 13.8573 11.5223 13.0828 11.3685C12.3084 11.2146 11.5046 11.3747 10.8482 11.8135ZM18.7891 7.99658C18.4989 7.7064 18.1473 7.47761 17.7623 7.32694C16.7522 6.93073 14.548 6.94747 13.125 6.96422C12.8962 6.96422 12.6842 6.9698 12.5 6.9698C12.3158 6.9698 12.0982 6.9698 11.8638 6.96422C10.4408 6.94747 8.24777 6.92515 7.23772 7.32694C6.85268 7.47761 6.5067 7.7064 6.21094 7.99658C5.91518 8.28676 5.69196 8.63832 5.54129 9.02337C5.14509 10.0334 5.16741 12.2432 5.17857 13.6662C5.17857 13.895 5.18415 14.1071 5.18415 14.2856C5.18415 14.4642 5.18415 14.6763 5.17857 14.9051C5.16741 16.3281 5.14509 18.5379 5.54129 19.5479C5.69196 19.933 5.92076 20.2789 6.21094 20.5747C6.50112 20.8705 6.85268 21.0937 7.23772 21.2444C8.24777 21.6406 10.452 21.6238 11.875 21.6071C12.1038 21.6071 12.3158 21.6015 12.5 21.6015C12.6842 21.6015 12.9018 21.6015 13.1362 21.6071C14.5592 21.6238 16.7522 21.6461 17.7623 21.2444C18.1473 21.0937 18.4933 20.8649 18.7891 20.5747C19.0848 20.2845 19.308 19.933 19.4587 19.5479C19.8605 18.5435 19.8382 16.3448 19.8214 14.9162C19.8214 14.6818 19.8158 14.4642 19.8158 14.2801C19.8158 14.0959 19.8158 13.8839 19.8214 13.6439C19.8382 12.2209 19.8605 10.0223 19.4587 9.01221C19.308 8.62716 19.0792 8.28118 18.7891 7.98542V7.99658ZM15.0446 10.4798C16.054 11.1547 16.7539 12.2029 16.9904 13.3939C17.227 14.5848 16.9807 15.8209 16.3058 16.8303C15.9716 17.3301 15.5423 17.7591 15.0423 18.093C14.5423 18.4269 13.9815 18.659 13.3918 18.7761C12.2008 19.0126 10.9647 18.7663 9.95536 18.0914C8.94599 17.4173 8.24578 16.3698 8.00874 15.1794C7.7717 13.989 8.01727 12.7532 8.69141 11.7438C9.36555 10.7344 10.413 10.0342 11.6035 9.79717C12.7939 9.56014 14.0297 9.8057 15.0391 10.4798H15.0446ZM16.6741 10.4073C16.5011 10.2901 16.3616 10.1227 16.2779 9.92739C16.1942 9.73207 16.1775 9.52002 16.2165 9.30797C16.2556 9.09591 16.3616 8.91176 16.5067 8.76109C16.6518 8.61042 16.8471 8.50997 17.0536 8.47091C17.26 8.43185 17.4777 8.44859 17.673 8.5323C17.8683 8.616 18.0357 8.74993 18.1529 8.92292C18.2701 9.09591 18.3315 9.30239 18.3315 9.51444C18.3315 9.65395 18.3036 9.79346 18.2533 9.92181C18.2031 10.0502 18.1194 10.1673 18.0246 10.2678C17.9297 10.3682 17.8069 10.4464 17.6786 10.5022C17.5502 10.558 17.4107 10.5859 17.2712 10.5859C17.0592 10.5859 16.8527 10.5245 16.6797 10.4073H16.6741ZM25 5.35707C25 3.38721 23.3984 1.78564 21.4286 1.78564H3.57143C1.60156 1.78564 0 3.38721 0 5.35707V23.2142C0 25.1841 1.60156 26.7856 3.57143 26.7856H21.4286C23.3984 26.7856 25 25.1841 25 23.2142V5.35707ZM19.9219 21.7075C18.8783 22.751 17.6116 23.0803 16.183 23.1528C14.7098 23.2365 10.2902 23.2365 8.81696 23.1528C7.38839 23.0803 6.12165 22.751 5.07812 21.7075C4.0346 20.664 3.70536 19.3973 3.63839 17.9687C3.55469 16.4955 3.55469 12.0758 3.63839 10.6026C3.71094 9.17404 4.0346 7.9073 5.07812 6.86377C6.12165 5.82024 7.39397 5.491 8.81696 5.42404C10.2902 5.34033 14.7098 5.34033 16.183 5.42404C17.6116 5.49658 18.8783 5.82024 19.9219 6.86377C20.9654 7.9073 21.2946 9.17404 21.3616 10.6026C21.4453 12.0702 21.4453 16.4843 21.3616 17.9631C21.2891 19.3917 20.9654 20.6584 19.9219 21.7019V21.7075Z" fill="#BAE7EB"/>
</svg>
