<svg width="25" height="29" viewBox="0 0 25 29" fill="none" xmlns="http://www.w3.org/2000/svg">
<path d="M10.8482 11.8137C10.5232 12.031 10.2442 12.3101 10.0271 12.6352C9.80995 12.9604 9.65899 13.3251 9.58282 13.7085C9.42898 14.4829 9.58908 15.2868 10.0279 15.9431C10.4667 16.5995 11.1483 17.0547 11.9227 17.2085C12.6972 17.3624 13.501 17.2023 14.1574 16.7634C14.8137 16.3246 15.2689 15.643 15.4228 14.8686C15.5766 14.0942 15.4165 13.2904 14.9777 12.634C14.5389 11.9776 13.8573 11.5224 13.0828 11.3686C12.3084 11.2147 11.5046 11.3748 10.8482 11.8137ZM18.7891 7.9967C18.4989 7.70653 18.1473 7.47773 17.7623 7.32706C16.7522 6.93086 14.548 6.9476 13.125 6.96434C12.8962 6.96434 12.6842 6.96992 12.5 6.96992C12.3158 6.96992 12.0982 6.96992 11.8638 6.96434C10.4408 6.9476 8.24777 6.92528 7.23772 7.32706C6.85268 7.47773 6.5067 7.70653 6.21094 7.9967C5.91518 8.28688 5.69196 8.63844 5.54129 9.02349C5.14509 10.0335 5.16741 12.2434 5.17857 13.6663C5.17857 13.8951 5.18415 14.1072 5.18415 14.2858C5.18415 14.4643 5.18415 14.6764 5.17857 14.9052C5.16741 16.3282 5.14509 18.538 5.54129 19.548C5.69196 19.9331 5.92076 20.2791 6.21094 20.5748C6.50112 20.8706 6.85268 21.0938 7.23772 21.2445C8.24777 21.6407 10.452 21.6239 11.875 21.6072C12.1038 21.6072 12.3158 21.6016 12.5 21.6016C12.6842 21.6016 12.9018 21.6016 13.1362 21.6072C14.5592 21.6239 16.7522 21.6463 17.7623 21.2445C18.1473 21.0938 18.4933 20.865 18.7891 20.5748C19.0848 20.2847 19.308 19.9331 19.4587 19.548C19.8605 18.5436 19.8382 16.3449 19.8214 14.9163C19.8214 14.682 19.8158 14.4643 19.8158 14.2802C19.8158 14.096 19.8158 13.884 19.8214 13.644C19.8382 12.221 19.8605 10.0224 19.4587 9.01233C19.308 8.62728 19.0792 8.2813 18.7891 7.98554V7.9967ZM15.0446 10.48C16.054 11.1548 16.7539 12.2031 16.9904 13.394C17.227 14.5849 16.9807 15.821 16.3058 16.8304C15.9716 17.3302 15.5423 17.7593 15.0423 18.0931C14.5423 18.427 13.9815 18.6591 13.3918 18.7762C12.2008 19.0127 10.9647 18.7665 9.95536 18.0916C8.94599 17.4174 8.24578 16.3699 8.00874 15.1795C7.7717 13.9891 8.01727 12.7533 8.69141 11.7439C9.36555 10.7346 10.413 10.0343 11.6035 9.7973C12.7939 9.56026 14.0297 9.80582 15.0391 10.48H15.0446ZM16.6741 10.4074C16.5011 10.2902 16.3616 10.1228 16.2779 9.92751C16.1942 9.73219 16.1775 9.52014 16.2165 9.30809C16.2556 9.09603 16.3616 8.91188 16.5067 8.76121C16.6518 8.61054 16.8471 8.5101 17.0536 8.47103C17.26 8.43197 17.4777 8.44871 17.673 8.53242C17.8683 8.61612 18.0357 8.75005 18.1529 8.92304C18.2701 9.09603 18.3315 9.30251 18.3315 9.51456C18.3315 9.65407 18.3036 9.79358 18.2533 9.92193C18.2031 10.0503 18.1194 10.1675 18.0246 10.2679C17.9297 10.3684 17.8069 10.4465 17.6786 10.5023C17.5502 10.5581 17.4107 10.586 17.2712 10.586C17.0592 10.586 16.8527 10.5246 16.6797 10.4074H16.6741ZM25 5.3572C25 3.38733 23.3984 1.78577 21.4286 1.78577H3.57143C1.60156 1.78577 0 3.38733 0 5.3572V23.2143C0 25.1842 1.60156 26.7858 3.57143 26.7858H21.4286C23.3984 26.7858 25 25.1842 25 23.2143V5.3572ZM19.9219 21.7076C18.8783 22.7512 17.6116 23.0804 16.183 23.153C14.7098 23.2367 10.2902 23.2367 8.81696 23.153C7.38839 23.0804 6.12165 22.7512 5.07812 21.7076C4.0346 20.6641 3.70536 19.3974 3.63839 17.9688C3.55469 16.4956 3.55469 12.0759 3.63839 10.6027C3.71094 9.17416 4.0346 7.90742 5.07812 6.86389C6.12165 5.82036 7.39397 5.49112 8.81696 5.42416C10.2902 5.34045 14.7098 5.34045 16.183 5.42416C17.6116 5.4967 18.8783 5.82036 19.9219 6.86389C20.9654 7.90742 21.2946 9.17416 21.3616 10.6027C21.4453 12.0704 21.4453 16.4844 21.3616 17.9632C21.2891 19.3918 20.9654 20.6585 19.9219 21.7021V21.7076Z" fill="#025B64"/>
</svg>
