<svg width="27" height="27" viewBox="0 0 27 27" fill="none" xmlns="http://www.w3.org/2000/svg">
<path d="M13.5 0C6.04778 0 0 6.04778 0 13.5C0 20.9522 6.04778 27 13.5 27C20.9522 27 27 20.9522 27 13.5C27 6.04778 20.9522 0 13.5 0ZM18.9817 19.8635C18.753 19.8635 18.6115 19.7927 18.3992 19.6675C15.0024 17.6208 11.0504 17.5337 7.14738 18.3339C6.93508 18.3883 6.65746 18.4754 6.4996 18.4754C5.97157 18.4754 5.63952 18.0562 5.63952 17.6153C5.63952 17.0546 5.97157 16.7879 6.37984 16.7008C10.8381 15.7155 15.3944 15.8026 19.281 18.127C19.6131 18.3393 19.8091 18.5298 19.8091 19.0252C19.8091 19.5206 19.4226 19.8635 18.9817 19.8635ZM20.446 16.2925C20.1629 16.2925 19.9724 16.1673 19.7764 16.0639C16.3742 14.0498 11.3008 13.2387 6.7881 14.4635C6.52681 14.5343 6.38528 14.605 6.14032 14.605C5.55786 14.605 5.08427 14.1315 5.08427 13.549C5.08427 12.9665 5.36734 12.58 5.92802 12.4222C7.44133 11.9976 8.9873 11.6819 11.2518 11.6819C14.7847 11.6819 18.1978 12.5583 20.8869 14.1587C21.3278 14.42 21.502 14.7575 21.502 15.231C21.4966 15.819 21.0393 16.2925 20.446 16.2925ZM22.1335 12.1446C21.8504 12.1446 21.6762 12.0738 21.4313 11.9323C17.5554 9.61875 10.6258 9.06351 6.14032 10.3155C5.94436 10.37 5.6994 10.4571 5.43811 10.4571C4.71956 10.4571 4.16976 9.89637 4.16976 9.17238C4.16976 8.43206 4.62702 8.0129 5.11694 7.87137C7.03306 7.31069 9.17782 7.04395 11.5131 7.04395C15.4869 7.04395 19.6512 7.87137 22.6942 9.64597C23.1187 9.89093 23.3964 10.2284 23.3964 10.8762C23.3964 11.6165 22.7976 12.1446 22.1335 12.1446Z" fill="#BAE7EB"/>
</svg>
