<svg width="27" height="28" viewBox="0 0 27 28" fill="none" xmlns="http://www.w3.org/2000/svg">
<g clip-path="url(#clip0_62_78)">
<path d="M13.5 0.435425C6.04778 0.435425 0 6.48321 0 13.9354C0 21.3876 6.04778 27.4354 13.5 27.4354C20.9522 27.4354 27 21.3876 27 13.9354C27 6.48321 20.9522 0.435425 13.5 0.435425ZM18.9817 20.2989C18.753 20.2989 18.6115 20.2282 18.3992 20.103C15.0024 18.0562 11.0504 17.9691 7.14738 18.7693C6.93508 18.8237 6.65746 18.9108 6.4996 18.9108C5.97157 18.9108 5.63952 18.4917 5.63952 18.0507C5.63952 17.4901 5.97157 17.2233 6.37984 17.1362C10.8381 16.1509 15.3944 16.238 19.281 18.5624C19.6131 18.7747 19.8091 18.9653 19.8091 19.4606C19.8091 19.956 19.4226 20.2989 18.9817 20.2989ZM20.446 16.728C20.1629 16.728 19.9724 16.6028 19.7764 16.4993C16.3742 14.4852 11.3008 13.6741 6.7881 14.8989C6.52681 14.9697 6.38528 15.0405 6.14032 15.0405C5.55786 15.0405 5.08427 14.5669 5.08427 13.9844C5.08427 13.402 5.36734 13.0155 5.92802 12.8576C7.44133 12.433 8.9873 12.1173 11.2518 12.1173C14.7847 12.1173 18.1978 12.9937 20.8869 14.5941C21.3278 14.8554 21.502 15.1929 21.502 15.6665C21.4966 16.2544 21.0393 16.728 20.446 16.728ZM22.1335 12.58C21.8504 12.58 21.6762 12.5092 21.4313 12.3677C17.5554 10.0542 10.6258 9.49893 6.14032 10.7509C5.94436 10.8054 5.6994 10.8925 5.4381 10.8925C4.71956 10.8925 4.16976 10.3318 4.16976 9.6078C4.16976 8.86748 4.62702 8.44833 5.11694 8.3068C7.03306 7.74611 9.17782 7.47938 11.5131 7.47938C15.4869 7.47938 19.6512 8.3068 22.6942 10.0814C23.1187 10.3264 23.3964 10.6639 23.3964 11.3116C23.3964 12.052 22.7976 12.58 22.1335 12.58Z" fill="#025B64"/>
</g>
<defs>
<clipPath id="clip0_62_78">
<rect width="27" height="27.871" fill="white"/>
</clipPath>
</defs>
</svg>
