<svg width="25" height="29" viewBox="0 0 25 29" fill="none" xmlns="http://www.w3.org/2000/svg">
<g clip-path="url(#clip0_63_357)">
<path d="M25 11.7132C22.5424 11.7184 20.1452 10.9513 18.1473 9.52009V19.4978C18.1468 21.3457 17.582 23.1494 16.5285 24.6676C15.4751 26.1858 13.9832 27.3462 12.2524 27.9936C10.5216 28.641 8.63437 28.7445 6.84316 28.2902C5.05195 27.8359 3.44213 26.8456 2.22901 25.4516C1.01589 24.0577 0.257307 22.3265 0.0547068 20.4898C-0.147893 18.653 0.215153 16.7981 1.09529 15.1733C1.97543 13.5484 3.3307 12.2311 4.97984 11.3973C6.62898 10.5636 8.49337 10.2532 10.3237 10.5078V15.5246C9.48676 15.2611 8.58801 15.2688 7.75575 15.5466C6.92348 15.8243 6.20026 16.358 5.68934 17.0713C5.17842 17.7845 4.90594 18.641 4.91079 19.5184C4.91564 20.3958 5.19758 21.2492 5.71635 21.9568C6.23512 22.6644 6.9642 23.19 7.79949 23.4586C8.63477 23.7271 9.53355 23.7249 10.3675 23.4522C11.2014 23.1795 11.9279 22.6503 12.4432 21.9401C12.9584 21.23 13.2361 20.3752 13.2366 19.4978V0H18.1473C18.1446 0.415326 18.1801 0.830024 18.2534 1.23884C18.4241 2.15011 18.7789 3.01699 19.2961 3.78649C19.8133 4.55599 20.4819 5.21195 21.2612 5.71429C22.3704 6.4469 23.6707 6.83698 25 6.83594V11.7132Z" fill="#BAE7EB"/>
</g>
<defs>
<clipPath id="clip0_63_357">
<rect width="25" height="28.5714" fill="white"/>
</clipPath>
</defs>
</svg>
