<svg width="25" height="29" viewBox="0 0 25 29" fill="none" xmlns="http://www.w3.org/2000/svg">
<path d="M3.57143 1.78564C1.60156 1.78564 0 3.38721 0 5.35707V23.2142C0 25.1841 1.60156 26.7856 3.57143 26.7856H21.4286C23.3984 26.7856 25 25.1841 25 23.2142V5.35707C25 3.38721 23.3984 1.78564 21.4286 1.78564H3.57143ZM20.1507 6.47314L14.3583 13.0914L21.1719 22.0981H15.8371L11.6629 16.635L6.88058 22.0981H4.22991L10.4241 15.0167L3.88951 6.47314H9.35826L13.1362 11.4676L17.5 6.47314H20.1507ZM18.0413 20.5133L8.56027 7.97426H6.98103L16.5681 20.5133H18.0357H18.0413Z" fill="#BAE7EB"/>
</svg>
