<svg width="25" height="29" viewBox="0 0 25 29" fill="none" xmlns="http://www.w3.org/2000/svg">
<path d="M3.57143 1.78577C1.60156 1.78577 0 3.38733 0 5.3572V23.2143C0 25.1842 1.60156 26.7858 3.57143 26.7858H21.4286C23.3984 26.7858 25 25.1842 25 23.2143V5.3572C25 3.38733 23.3984 1.78577 21.4286 1.78577H3.57143ZM20.1507 6.47327L14.3583 13.0916L21.1719 22.0983H15.8371L11.6629 16.6351L6.88058 22.0983H4.22991L10.4241 15.0168L3.88951 6.47327H9.35826L13.1362 11.4677L17.5 6.47327H20.1507ZM18.0413 20.5134L8.56027 7.97438H6.98103L16.5681 20.5134H18.0357H18.0413Z" fill="#025B64"/>
</svg>
