<svg width="35" height="32" viewBox="0 0 35 32" fill="none" xmlns="http://www.w3.org/2000/svg">
<path d="M33.4019 7.54058C33.0191 6.10048 31.895 4.97027 30.467 4.58746C27.8785 3.88867 17.5 3.88867 17.5 3.88867C17.5 3.88867 7.12153 3.88867 4.53298 4.58746C3.10503 4.97027 1.9809 6.10048 1.59809 7.54058C0.90538 10.1474 0.90538 15.5796 0.90538 15.5796C0.90538 15.5796 0.90538 21.0119 1.59809 23.6187C1.9809 25.0588 3.10503 26.1404 4.53298 26.5232C7.12153 27.222 17.5 27.222 17.5 27.222C17.5 27.222 27.8785 27.222 30.467 26.5232C31.895 26.1404 33.0191 25.0527 33.4019 23.6187C34.0946 21.0119 34.0946 15.5796 34.0946 15.5796C34.0946 15.5796 34.0946 10.1474 33.4019 7.54058ZM14.1094 20.5137V10.6456L22.7804 15.5796L14.1094 20.5137Z" fill="#BAE7EB"/>
</svg>
