<svg width="35" height="32" viewBox="0 0 35 32" fill="none" xmlns="http://www.w3.org/2000/svg">
<path d="M33.4019 7.54083C33.0191 6.10072 31.895 4.97051 30.467 4.5877C27.8785 3.88892 17.5 3.88892 17.5 3.88892C17.5 3.88892 7.12153 3.88892 4.53298 4.5877C3.10503 4.97051 1.9809 6.10072 1.59809 7.54083C0.90538 10.1476 0.90538 15.5799 0.90538 15.5799C0.90538 15.5799 0.90538 21.0122 1.59809 23.619C1.9809 25.0591 3.10503 26.1407 4.53298 26.5235C7.12153 27.2222 17.5 27.2222 17.5 27.2222C17.5 27.2222 27.8785 27.2222 30.467 26.5235C31.895 26.1407 33.0191 25.053 33.4019 23.619C34.0946 21.0122 34.0946 15.5799 34.0946 15.5799C34.0946 15.5799 34.0946 10.1476 33.4019 7.54083ZM14.1094 20.5139V10.6459L22.7804 15.5799L14.1094 20.5139Z" fill="#025B64"/>
</svg>
